<?xml version="1.0" encoding="utf-8"?>
<!-- Generator: Adobe Illustrator 16.0.0, SVG Export Plug-In . SVG Version: 6.00 Build 0)  -->
<!DOCTYPE svg PUBLIC "-//W3C//DTD SVG 1.1//EN" "http://www.w3.org/Graphics/SVG/1.1/DTD/svg11.dtd">
<svg version="1.1" id="Layer_1" xmlns="http://www.w3.org/2000/svg" xmlns:xlink="http://www.w3.org/1999/xlink" x="0px" y="0px"
	 width="120.021px" height="32.164px" viewBox="0 0 120.021 32.164" enable-background="new 0 0 120.021 32.164"
	 xml:space="preserve">
<path fill="#FFFFFF" d="M24.583,0.843l-9.659,11.33l-3.366,3.948l-5.68,6.666V9.457l4.218,4.95l3.365-3.949L5.266,0.843L0.754,2.504
	V29.74l4.512,1.66l9.659-11.331l3.365-3.949l5.681-6.664v13.329l-4.219-4.949l-3.365,3.949l8.197,9.615l4.51-1.662V2.504
	L24.583,0.843z"/>
<g>
	<path fill="#FFFFFF" d="M58.907,15.915c0,2.017-0.348,3.894-1.044,5.629c-0.696,1.736-1.675,3.246-2.939,4.527
		c-1.264,1.283-2.786,2.289-4.567,3.016c-1.78,0.729-3.756,1.093-5.926,1.093s-4.148-0.364-5.935-1.093
		c-1.788-0.727-3.316-1.731-4.587-3.016c-1.27-1.283-2.252-2.791-2.949-4.527c-0.695-1.736-1.043-3.612-1.043-5.629
		s0.348-3.893,1.043-5.629c0.696-1.735,1.679-3.242,2.949-4.519c1.271-1.276,2.799-2.279,4.587-3.006
		c1.787-0.728,3.765-1.092,5.935-1.092s4.146,0.367,5.926,1.102c1.781,0.734,3.303,1.739,4.567,3.016
		c1.264,1.277,2.243,2.783,2.939,4.519C58.559,12.042,58.907,13.911,58.907,15.915z M52.282,15.915c0-1.378-0.179-2.62-0.536-3.724
		c-0.358-1.104-0.872-2.039-1.542-2.805c-0.67-0.766-1.49-1.354-2.46-1.762c-0.971-0.408-2.074-0.612-3.313-0.612
		c-1.25,0-2.365,0.204-3.342,0.612C40.113,8.033,39.29,8.62,38.62,9.386c-0.67,0.766-1.185,1.701-1.542,2.805
		s-0.536,2.346-0.536,3.724c0,1.392,0.178,2.64,0.536,3.745c0.357,1.104,0.872,2.039,1.542,2.805
		c0.669,0.766,1.493,1.35,2.469,1.752c0.977,0.402,2.091,0.603,3.342,0.603c1.239,0,2.342-0.2,3.313-0.603
		c0.97-0.403,1.79-0.987,2.46-1.752c0.67-0.766,1.184-1.701,1.542-2.805C52.103,18.555,52.282,17.307,52.282,15.915z"/>
	<path fill="#FFFFFF" d="M77.011,18.632c0.236,0.523,0.463,1.061,0.68,1.609c0.219-0.563,0.446-1.107,0.689-1.639
		c0.242-0.529,0.49-1.044,0.746-1.543l7.162-14.107c0.127-0.243,0.258-0.431,0.394-0.565c0.134-0.134,0.284-0.233,0.448-0.297
		c0.166-0.064,0.354-0.096,0.565-0.096c0.21,0,0.457,0,0.737,0h4.939v27.879h-5.705V13.828c0-0.778,0.039-1.622,0.115-2.528
		L80.39,25.643c-0.229,0.446-0.539,0.784-0.928,1.015c-0.391,0.229-0.834,0.344-1.332,0.344H77.25c-0.498,0-0.941-0.114-1.331-0.344
		c-0.39-0.229-0.699-0.568-0.929-1.015l-7.43-14.361c0.051,0.447,0.089,0.89,0.115,1.331c0.026,0.441,0.038,0.846,0.038,1.216
		v16.045h-5.706V1.995h4.94c0.281,0,0.526,0,0.737,0c0.21,0,0.399,0.032,0.565,0.096c0.166,0.064,0.315,0.163,0.45,0.297
		c0.134,0.134,0.265,0.323,0.393,0.565l7.18,14.166C76.529,17.604,76.774,18.109,77.011,18.632z"/>
	<path fill="#FFFFFF" d="M97.968,29.875V1.976h10.262c1.93,0,3.568,0.179,4.922,0.536s2.457,0.862,3.313,1.513
		c0.854,0.651,1.478,1.443,1.867,2.375s0.584,1.972,0.584,3.121c0,0.625-0.09,1.229-0.269,1.81s-0.459,1.126-0.842,1.637
		c-0.384,0.51-0.875,0.973-1.476,1.388c-0.6,0.415-1.32,0.775-2.162,1.082c1.838,0.447,3.197,1.171,4.078,2.173
		s1.32,2.288,1.32,3.857c0,1.188-0.229,2.291-0.689,3.314c-0.459,1.02-1.133,1.911-2.021,2.67c-0.888,0.76-1.981,1.354-3.282,1.781
		c-1.303,0.428-2.789,0.643-4.463,0.643H97.968V29.875z M104.44,13.713h3.37c0.715,0,1.359-0.051,1.934-0.153
		s1.063-0.281,1.465-0.537c0.401-0.255,0.709-0.605,0.918-1.053c0.211-0.447,0.316-1.008,0.316-1.685
		c0-0.663-0.083-1.216-0.25-1.656c-0.166-0.441-0.42-0.795-0.765-1.063s-0.782-0.459-1.312-0.574
		c-0.531-0.116-1.16-0.173-1.888-0.173h-3.79L104.44,13.713L104.44,13.713z M104.44,18.041v6.951h4.558
		c0.854,0,1.553-0.107,2.096-0.326c0.541-0.217,0.967-0.498,1.273-0.842c0.307-0.345,0.518-0.734,0.631-1.168
		c0.115-0.434,0.172-0.875,0.172-1.32c0-0.51-0.067-0.971-0.2-1.379c-0.134-0.408-0.365-0.752-0.69-1.035
		c-0.324-0.28-0.755-0.498-1.292-0.65c-0.536-0.152-1.213-0.23-2.03-0.23H104.44z"/>
</g>
</svg>
